# xmcd
#
# Track frame offsets:
#	150
#	20056
#	43867
#	67468
#	107034
#	138417
#	155017
#	177794
#	209398
#	232838
#	250986
#	277255
#	301864
#	334844
#
# Disc length: 4761 seconds
#
# Revision: 81286333
# Processed by: cddbd v1.5.1PL0 Copyright (c) Steve Scherf et al.
# Submitted via: EasyCDDAExtractor 8.0.2.1
#
DISCID=d512970e
DTITLE=Various Artist - Blues Paradise vol.20
DYEAR=2000
DGENRE=Blues
TTITLE0=Beto Lovato - Linda Hegra Tejana
TTITLE1=Rick Vito - Living Without You
TTITLE2=Roger Hurricane Wilson - Heart Of Stone
TTITLE3=Popa Chubby Band - San Catri
TTITLE4=Bobby Mack - Pourin Rain
TTITLE5=Tab Benoit - Jambalaya
TTITLE6=Neil Black and The Healers - Any Woman I Love
TTITLE7=Blindside Blues Band - Truth Never Lies
TTITLE8=Buddah Heads - House Of Shame
TTITLE9=Sy Klopps Blues Band - Pretty Woman
TTITLE10=Ten Years After - Outside My Window
TTITLE11=Vincec Converse and Innes Sibun - Rattlesnake Snake
TTITLE12=Innes Sibun - Sandy
TTITLE13=Dave Meniketti - Until The Next Time
EXTD=YEAR: 2003
EXTT0=
EXTT1=
EXTT2=
EXTT3=
EXTT4=
EXTT5=
EXTT6=
EXTT7=
EXTT8=
EXTT9=
EXTT10=
EXTT11=
EXTT12=
EXTT13=
PLAYORDER=
